<svg xmlns="http://www.w3.org/2000/svg" style="display: none;">
  <defs>
    <symbol id="send" viewBox="0 0 24 24">
      <path d="m2 21 21-9L2 3v7l15 2-15 2v7Z"/>
    </symbol>
    <symbol id="arrow-right" viewBox="0 0 24 24">
      <path d="m14.2 4.8 6.5 6.5.7.7-.7.7-6.5 6.5-1.4-1.4 4.8-4.8H3v-2h14.6l-4.8-4.8 1.4-1.4Z"/>
    </symbol>
    <symbol id="chevron-right" viewBox="0 0 24 24">
      <path d="M13.6 12 7.8 6.2l1.4-1.4 6.5 6.5.7.7-.7.7-6.5 6.5-1.4-1.4 5.8-5.8Z"/>
    </symbol>
    <symbol id="twitter" viewBox="0 0 24 24">
      <path d="M18.24 2.25h3.31l-7.23 8.26 8.5 11.24h-6.65l-5.21-6.82-5.97 6.82H1.68l7.73-8.84L1.25 2.25h6.83l4.71 6.23 5.45-6.23Zm-1.16 17.52h1.84L7.08 4.13H5.12l11.96 15.64Z"/>
    </symbol>
    <symbol id="github" viewBox="0 0 24 24">
      <path d="M12 2a10 10 0 0 0-3.2 19.5c.5 0 .7-.2.7-.5v-1.7C6.7 20 6.1 18 6.1 18c-.4-1.2-1-1.5-1-1.5-1-.6 0-.6 0-.6 1 0 1.5 1 1.5 1 .9 1.6 2.4 1.1 3 .9 0-.7.3-1.1.6-1.4-2.2-.2-4.6-1-4.6-4.9 0-1.1.4-2 1-2.7 0-.3-.4-1.3.2-2.7 0 0 .8-.2 2.7 1a9.4 9.4 0 0 1 5 0c2-1.2 2.8-1 2.8-1 .5 1.4.1 2.4 0 2.7.7.7 1 1.6 1 2.7 0 3.8-2.3 4.7-4.5 5 .4.2.7.8.7 1.8V21c0 .3.2.6.7.5A10 10 0 0 0 12 2Z"/>
    </symbol>
    <symbol id="insta" viewBox="0 0 2470 2470">
      <path d="M825.4 1238c0-227.9 184.7-412.7 412.6-412.7 227.9 0 412.7 184.8 412.7 412.7 0 227.9-184.8 412.7-412.7 412.7-227.9 0-412.6-184.8-412.6-412.7m-223.1 0c0 351.1 284.6 635.7 635.7 635.7s635.7-284.6 635.7-635.7-284.6-635.7-635.7-635.7S602.3 886.9 602.3 1238m1148-660.9c0 82 66.5 148.6 148.6 148.6 82 0 148.6-66.6 148.6-148.6s-66.5-148.5-148.6-148.5-148.6 66.5-148.6 148.5M737.8 2245.7c-120.7-5.5-186.3-25.6-229.9-42.6-57.8-22.5-99-49.3-142.4-92.6-43.3-43.3-70.2-84.5-92.6-142.3-17-43.6-37.1-109.2-42.6-229.9-6-130.5-7.2-169.7-7.2-500.3s1.3-369.7 7.2-500.3c5.5-120.7 25.7-186.2 42.6-229.9 22.5-57.8 49.3-99 92.6-142.4 43.3-43.3 84.5-70.2 142.4-92.6 43.6-17 109.2-37.1 229.9-42.6 130.5-6 169.7-7.2 500.2-7.2 330.6 0 369.7 1.3 500.3 7.2 120.7 5.5 186.2 25.7 229.9 42.6 57.8 22.4 99 49.3 142.4 92.6 43.3 43.3 70.1 84.6 92.6 142.4 17 43.6 37.1 109.2 42.6 229.9 6 130.6 7.2 169.7 7.2 500.3 0 330.5-1.2 369.7-7.2 500.3-5.5 120.7-25.7 186.3-42.6 229.9-22.5 57.8-49.3 99-92.6 142.3-43.3 43.3-84.6 70.1-142.4 92.6-43.6 17-109.2 37.1-229.9 42.6-130.5 6-169.7 7.2-500.3 7.2-330.5 0-369.7-1.2-500.2-7.2M727.6 7.5c-131.8 6-221.8 26.9-300.5 57.5-81.4 31.6-150.4 74-219.3 142.8C139 276.6 96.6 345.6 65 427.1 34.4 505.8 13.5 595.8 7.5 727.6 1.4 859.6 0 901.8 0 1238s1.4 378.4 7.5 510.4c6 131.8 26.9 221.8 57.5 300.5 31.6 81.4 73.9 150.5 142.8 219.3 68.8 68.8 137.8 111.1 219.3 142.8 78.8 30.6 168.7 51.5 300.5 57.5 132.1 6 174.2 7.5 510.4 7.5 336.3 0 378.4-1.4 510.4-7.5 131.8-6 221.8-26.9 300.5-57.5 81.4-31.7 150.4-74 219.3-142.8 68.8-68.8 111.1-137.9 142.8-219.3 30.6-78.7 51.6-168.7 57.5-300.5 6-132.1 7.4-174.2 7.4-510.4s-1.4-378.4-7.4-510.4c-6-131.8-26.9-221.8-57.5-300.5-31.7-81.4-74-150.4-142.8-219.3C2199.4 139 2130.3 96.6 2049 65c-78.8-30.6-168.8-51.6-300.5-57.5-132-6-174.2-7.5-510.4-7.5-336.3 0-378.4 1.4-510.5 7.5"/>
    </symbol>
    <symbol id="menu" viewBox="0 0 24 24">
      <path d="M22 6H2V4h20v2ZM2 13h16v-2H2v2Zm0 7h20v-2H2v2Z"/>
    </symbol>
    <symbol id="figma" viewBox="2 0 18 18">
      <path fill-rule="evenodd" d="M12.51 8.796v1.697a3.738 3.738 0 0 1 3.288-1.684c3.455 0 4.202 2.16 4.202 4.97V19.5h-3.2v-5.072c0-1.21-.244-2.766-2.128-2.766-1.827 0-2.139 1.317-2.139 2.676V19.5h-3.19V8.796h3.168ZM7.2 6.106a1.61 1.61 0 0 1-.988 1.483 1.595 1.595 0 0 1-1.743-.348A1.607 1.607 0 0 1 5.6 4.5a1.601 1.601 0 0 1 1.6 1.606Z"/>
      <path d="M7.2 8.809H4V19.5h3.2V8.809Z"/>
    </symbol>
    <symbol id="copy" viewBox="0 0 24 24">
      <path d="M3 2h12v4H7v10H3V2Zm6 20V8h12v11l-3 3H9Z"/>
    </symbol>
    <symbol id="error" viewBox="0 0 24 24">
      <path d="M19.7 19H4.3L12 5l7.7 14ZM11.1 2.5l-9.4 17 1 1.5h18.7l.9-1.5-9.4-17H11ZM11 14v-4h2v4h-2Zm0 3v-2h2v2h-2Z"/>
    </symbol>
    <symbol id="arrow-left" viewBox="0 0 24 24">
      <path d="m9.8 19.2-6.5-6.5-.7-.7.7-.7 6.5-6.5 1.4 1.4L6.4 11H21v2H6.4l4.8 4.8-1.4 1.4Z"/>
    </symbol>
    <symbol id="check" viewBox="0 0 24 24">
      <path d="m20.2 7.2-10 10-.7.7-.7-.7-5-5 1.4-1.4L9.5 15l9.3-9.3 1.4 1.4Z"/>
    </symbol>
    <symbol id="link" viewBox="0 0 24 24">
      <path d="M9 4 8 5v2h2V6h10v7H10v-2H8v3l1 1h12l1-1V5l-1-1H9Zm2 4H3L2 9v9l1 1h12l1-1v-2h-2v1H4v-7h10v2h2V9l-1-1h-4Z"/>
    </symbol>
    <symbol id="close" viewBox="0 0 24 24">
      <path d="M19 6.4 17.6 5 12 10.6 6.4 5 5 6.4l5.6 5.6L5 17.6 6.4 19l5.6-5.6 5.6 5.6 1.4-1.4-5.6-5.6L19 6.4Z"/>
    </symbol>
    <symbol id="pause" viewBox="0 0 24 24">
      <path d="M6 19h4V5H6v14Zm8-14v14h4V5h-4Z"/>
    </symbol>
    <symbol id="play" viewBox="0 0 24 24">
      <path d="M8 5v14l11-7L8 5Z"/>
    </symbol>
  </defs>
</svg>